<svg width="18" height="18" viewBox="0 0 18 18" fill="none" xmlns="http://www.w3.org/2000/svg">
<path d="M17.9994 4.03552C17.5475 5.66384 16.9956 7.25469 16.4872 8.86186C16.4203 9.06337 16.3346 9.25679 16.2316 9.43908C15.9949 9.87125 15.6274 10.0681 15.1782 10.0993C15.111 10.104 15.0436 10.1021 14.9762 10.1021H5.49269C5.57846 10.7066 5.66275 11.3025 5.74852 11.9063H5.88203C8.8817 11.9063 11.8814 11.907 14.881 11.9084C15.0306 11.9064 15.1799 11.9223 15.3264 11.9559C15.625 12.0294 15.7949 12.2466 15.8285 12.5805C15.8555 12.8321 15.818 13.0869 15.7203 13.3165C15.6285 13.5339 15.4737 13.6525 15.2612 13.686C15.1828 13.699 15.1036 13.7058 15.0243 13.7063C11.8627 13.7063 8.70111 13.7003 5.5397 13.7132C4.94742 13.7156 4.56028 13.4311 4.30409 12.8748C4.12209 12.4812 4.02475 12.0595 3.95001 11.6311C3.70146 10.1914 3.45341 8.75158 3.20584 7.31171C2.93477 5.74315 2.66248 4.17501 2.38896 2.60726C2.37188 2.50874 2.35406 2.41022 2.33386 2.30122H2.23285C1.85324 2.30122 1.47253 2.27986 1.0942 2.30626C0.52139 2.34655 0.221485 1.91862 0.0927447 1.51265C0.0481171 1.37161 0.0301191 1.2203 0 1.07383V0.751472C0.00641804 0.740658 0.0115992 0.72902 0.0154268 0.716818C0.102478 0.284049 0.382733 0.0116549 0.78181 0.00581209C1.49193 -0.00305282 2.20206 -0.0017768 2.91218 0.00964013C3.24753 0.0154829 3.52687 0.172835 3.72485 0.479883C3.87654 0.71299 3.9399 0.984982 3.9838 1.25818C4.06589 1.76973 4.13421 2.2843 4.1983 2.79906C4.21226 2.91209 4.25193 2.9272 4.34266 2.927C7.76656 2.92378 11.1904 2.92223 14.6142 2.92237C14.6447 2.92237 14.6753 2.92237 14.706 2.92237C15.4371 2.92418 16.1684 2.92116 16.8996 2.93022C17.175 2.93365 17.4373 3.00638 17.6694 3.18549C17.8465 3.32209 17.9405 3.5141 18 3.73391L17.9994 4.03552ZM16.0195 4.70039L4.59995 4.66009C4.81446 5.87519 5.02639 7.07578 5.2387 8.27959C5.27194 8.28141 5.29894 8.28403 5.32612 8.28403C8.44724 8.29088 11.5684 8.29826 14.6895 8.30619C14.7594 8.30619 14.7888 8.28282 14.8131 8.2117C15.0834 7.41748 15.3576 6.62488 15.6305 5.83167C15.7589 5.45914 15.8874 5.08661 16.0195 4.70039Z" fill="#8753CF"/>
<path d="M13.5184 17.9974C13.4407 17.9827 13.3624 17.9704 13.2853 17.9527C12.5026 17.7731 11.9263 16.9876 11.9334 16.1134C11.9415 15.2293 12.5136 14.4835 13.3108 14.3166C14.282 14.1133 15.1957 14.8292 15.331 15.8996C15.4506 16.8466 14.8219 17.7858 13.9536 17.9573C13.8818 17.9716 13.8096 17.9841 13.7377 17.9976L13.5184 17.9974Z" fill="#8753CF"/>
<path d="M4.32764 16.0914C4.32617 15.0625 5.08062 14.2487 6.03561 14.2477C6.98363 14.2477 7.73532 15.0613 7.73495 16.0896C7.73495 17.1052 6.96361 17.9534 6.04185 17.9518C5.0999 17.9504 4.32892 17.1139 4.32764 16.0914Z" fill="#8753CF"/>
</svg>
