<svg width="65" height="65" viewBox="0 0 65 65" fill="none" xmlns="http://www.w3.org/2000/svg">
<path d="M64.998 14.5727C63.3659 20.4528 61.373 26.1975 59.5373 32.0011C59.2955 32.7288 58.9862 33.4273 58.6141 34.0856C57.7593 35.6462 56.4322 36.357 54.8101 36.4698C54.5673 36.4865 54.324 36.4799 54.0806 36.4799H19.8347C20.1444 38.6626 20.4488 40.8147 20.7585 42.9951H21.2407C32.0728 42.9951 42.9049 42.9976 53.737 43.0024C54.2772 42.9953 54.8165 43.0529 55.3453 43.1741C56.4236 43.4397 57.0371 44.224 57.1584 45.4295C57.2559 46.3381 57.1206 47.2584 56.7678 48.0873C56.4362 48.8723 55.8771 49.3008 55.1098 49.4216C54.8266 49.4685 54.5407 49.4931 54.2543 49.4951C42.8375 49.4951 31.4207 49.4733 20.0045 49.5198C17.8657 49.5285 16.4677 48.5012 15.5425 46.4925C14.8853 45.0708 14.5338 43.5481 14.2639 42.0013C13.3664 36.8022 12.4706 31.6029 11.5767 26.4034C10.5978 20.7392 9.6145 15.0764 8.62679 9.41511C8.56511 9.05933 8.50078 8.70356 8.42783 8.30996H8.06307C6.69226 8.30996 5.31746 8.23284 3.95129 8.32815C1.8828 8.47366 0.799808 6.92834 0.334912 5.46233C0.173756 4.95305 0.108763 4.40666 0 3.87773V2.71365C0.0231763 2.6746 0.0418858 2.63257 0.0557078 2.58851C0.37006 1.02573 1.38209 0.042087 2.8232 0.0209881C5.38754 -0.0110241 7.95188 -0.00641622 10.5162 0.0348116C11.7272 0.0559105 12.7359 0.624127 13.4508 1.73291C13.9986 2.57469 14.2274 3.55688 14.3859 4.54344C14.6824 6.39068 14.9291 8.24884 15.1605 10.1077C15.2109 10.5159 15.3542 10.5705 15.6818 10.5697C28.0459 10.5581 40.4098 10.5525 52.7734 10.553C52.8835 10.553 52.9943 10.553 53.105 10.553C55.7452 10.5595 58.386 10.5486 61.0262 10.5814C62.0209 10.5937 62.968 10.8564 63.8063 11.5032C64.4456 11.9965 64.7851 12.6898 65 13.4836L64.998 14.5727ZM57.8481 16.9736L16.6109 16.8281C17.3855 21.216 18.1509 25.5514 18.9175 29.8985C19.0376 29.9051 19.135 29.9145 19.2332 29.9145C30.5039 29.9393 41.7746 29.966 53.0453 29.9946C53.298 29.9946 53.4041 29.9102 53.4916 29.6533C54.4679 26.7853 55.458 23.9232 56.4435 21.0588C56.9071 19.7136 57.3713 18.3683 57.8481 16.9736Z" fill="#B9B9B9"/>
<path d="M48.8173 64.9906C48.5368 64.9375 48.2543 64.8931 47.9757 64.8291C45.1492 64.1808 43.0681 61.3441 43.094 58.1873C43.1232 54.9948 45.189 52.3014 48.0679 51.699C51.5749 50.9649 54.8742 53.5499 55.363 57.4153C55.7948 60.8348 53.5247 64.2267 50.3891 64.8458C50.1298 64.8975 49.8691 64.9426 49.6092 64.9913L48.8173 64.9906Z" fill="#B9B9B9"/>
<path d="M15.6289 58.1079C15.6236 54.3923 18.348 51.4537 21.7966 51.4501C25.22 51.4501 27.9344 54.3879 27.9331 58.1013C27.9331 61.7689 25.1477 64.8319 21.8191 64.8261C18.4176 64.821 15.6336 61.8002 15.6289 58.1079Z" fill="#B9B9B9"/>
</svg>
