<svg width="155" height="42" viewBox="0 0 155 42" fill="none" xmlns="http://www.w3.org/2000/svg">
<g clip-path="url(#clip0_4_5)">
<path d="M145.611 33.6445C145.611 36.1861 145.611 38.7231 145.611 41.292C144.656 41.292 143.733 41.292 142.777 41.292C142.777 36.826 142.777 32.3646 142.777 27.8396C143.014 27.8396 143.25 27.8396 143.487 27.8396C144.087 27.8396 144.688 27.8533 145.288 27.8306C145.543 27.8215 145.657 27.9259 145.752 28.1392C146.744 30.354 147.736 32.5643 148.732 34.7791C148.773 34.8699 148.827 34.9607 148.9 35.0968C149.228 34.4478 149.537 33.8396 149.846 33.2315C150.701 31.5386 151.566 29.8502 152.412 28.1528C152.535 27.9077 152.676 27.8306 152.944 27.8351C153.622 27.8533 154.304 27.8396 155.005 27.8396C155.005 32.3374 155.005 36.7988 155.005 41.2874C154.204 41.2874 153.408 41.2874 152.576 41.2874C152.576 38.7413 152.576 36.2088 152.576 33.6762C152.553 33.6672 152.525 33.6536 152.503 33.6445C152.444 33.7398 152.375 33.8351 152.321 33.9349C151.52 35.3601 150.71 36.7761 149.928 38.2103C149.769 38.5053 149.591 38.6369 149.255 38.5915C149.041 38.5643 148.814 38.5598 148.6 38.5915C148.19 38.6505 147.999 38.4735 147.831 38.1059C147.135 36.6036 146.407 35.1195 145.689 33.6263C145.657 33.6354 145.634 33.6399 145.611 33.6445Z" fill="#B9B9B9"/>
<path d="M116.986 38.9682C119.019 38.9682 121.03 38.9682 123.063 38.9682C123.063 39.7489 123.063 40.5023 123.063 41.2738C120.074 41.2738 117.099 41.2738 114.102 41.2738C114.102 36.7988 114.102 32.3328 114.102 27.8442C117.09 27.8442 120.074 27.8442 123.072 27.8442C123.072 28.6067 123.072 29.351 123.072 30.1407C121.043 30.1407 119.019 30.1407 116.977 30.1407C116.977 31.2163 116.977 32.2466 116.977 33.3222C118.728 33.3222 120.475 33.3222 122.244 33.3222C122.244 34.1165 122.244 34.8699 122.244 35.6551C120.488 35.6551 118.751 35.6551 116.986 35.6551C116.986 36.7625 116.986 37.8381 116.986 38.9682Z" fill="#B9B9B9"/>
<path d="M139.038 41.301C138.11 41.301 137.223 41.3056 136.336 41.292C136.259 41.292 136.15 41.1467 136.113 41.0514C135.891 40.4478 135.681 39.8396 135.477 39.2269C135.413 39.0272 135.331 38.9319 135.094 38.9364C133.78 38.9501 132.461 38.9455 131.146 38.9364C130.937 38.9364 130.841 39 130.778 39.1951C130.578 39.8169 130.359 40.4387 130.136 41.0514C130.1 41.1467 129.986 41.2874 129.909 41.2874C129.022 41.3056 128.135 41.2965 127.198 41.2965C127.366 40.8245 127.516 40.3979 127.671 39.9667C129.09 36.0681 130.518 32.1694 131.929 28.2663C132.056 27.9168 132.211 27.7806 132.588 27.8124C133.011 27.8487 133.443 27.8305 133.871 27.8169C134.076 27.8124 134.18 27.8759 134.248 28.0711C135.809 32.36 137.373 36.649 138.934 40.938C138.965 41.0423 138.988 41.1422 139.038 41.301ZM134.958 36.6853C134.412 35.056 133.885 33.472 133.32 31.7927C132.756 33.4811 132.229 35.065 131.692 36.6853C132.806 36.6853 133.853 36.6853 134.958 36.6853Z" fill="#B9B9B9"/>
<path d="M96.5253 29.2375C95.9158 29.8184 95.3653 30.3404 94.7967 30.8805C93.9871 30.2768 93.0409 29.9455 91.9901 29.9955C91.6626 30.0136 91.3215 30.0681 91.0122 30.177C90.2116 30.4584 89.8932 30.9939 89.9523 31.8563C89.9932 32.4554 90.4936 32.9637 91.2441 33.1044C91.981 33.2405 92.7271 33.3268 93.464 33.4538C96.8937 34.0393 97.5715 37.3752 96.3115 39.3903C95.6974 40.3752 94.7422 40.9107 93.655 41.1785C91.9174 41.6006 90.1979 41.4871 88.5331 40.8109C87.9463 40.5703 87.4687 40.1755 87.0684 39.5945C87.6415 39.0908 88.2146 38.5824 88.7696 38.0968C89.2245 38.3283 89.7612 38.6823 90.348 38.8729C91.3078 39.1815 92.304 39.1815 93.282 38.9047C94.0326 38.6959 94.4192 38.174 94.4374 37.4115C94.4556 36.767 94.028 36.1316 93.332 35.9455C92.677 35.7731 91.9947 35.7231 91.3306 35.587C90.7119 35.4554 90.0751 35.351 89.502 35.1104C88.0054 34.4932 87.364 33.1815 87.4914 31.4841C87.6551 29.2829 89.088 27.9077 91.3624 27.7216C92.7589 27.6082 94.1326 27.7579 95.379 28.475C95.752 28.6929 96.1023 28.9561 96.5253 29.2375Z" fill="#B9B9B9"/>
<path d="M109.972 30.1407C108.898 30.1407 107.838 30.1407 106.742 30.1407C106.742 33.8533 106.742 37.5431 106.742 41.2648C105.764 41.2648 104.827 41.2648 103.849 41.2648C103.849 37.5704 103.849 33.8805 103.849 30.1498C102.603 30.1498 101.397 30.1498 100.173 30.1498C100.173 29.3691 100.173 28.6248 100.173 27.8487C103.435 27.8487 106.696 27.8487 109.976 27.8487C109.972 28.6021 109.972 29.3465 109.972 30.1407Z" fill="#B9B9B9"/>
<path d="M3.0022 39.1543C5.11739 39.1543 7.21438 39.1543 9.33412 39.1543C9.33412 39.9712 9.33412 40.7519 9.33412 41.5552C6.22274 41.5552 3.12502 41.5552 0 41.5552C0 36.8941 0 32.242 0 27.5628C3.11137 27.5628 6.2182 27.5628 9.34321 27.5628C9.34321 28.357 9.34321 29.1331 9.34321 29.9546C7.23258 29.9546 5.12194 29.9546 2.9931 29.9546C2.9931 31.0756 2.9931 32.1513 2.9931 33.2723C4.81717 33.2723 6.63668 33.2723 8.47894 33.2723C8.47894 34.1029 8.47894 34.8835 8.47894 35.705C6.65033 35.705 4.83991 35.705 3.0022 35.705C3.0022 36.8578 3.0022 37.9743 3.0022 39.1543Z" fill="#B9B9B9"/>
<path d="M38.0734 29.0151C37.4365 29.6188 36.8634 30.1634 36.272 30.7262C35.426 30.0953 34.4434 29.7504 33.3472 29.8048C33.006 29.823 32.6512 29.8775 32.3282 29.9909C31.4958 30.2814 31.1637 30.8396 31.2229 31.7428C31.2638 32.3691 31.7869 32.8956 32.5693 33.0454C33.3381 33.1906 34.1114 33.2768 34.8801 33.4085C38.4509 34.0212 39.1605 37.4932 37.8459 39.5945C37.2045 40.6203 36.2129 41.1785 35.0757 41.4554C33.2653 41.8956 31.4776 41.7776 29.7445 41.0741C29.135 40.8245 28.6346 40.4115 28.2161 39.8079C28.812 39.2814 29.4125 38.7549 29.9902 38.2466C30.4632 38.4871 31.0227 38.8548 31.6368 39.0545C32.633 39.3722 33.6747 39.3722 34.6936 39.0908C35.476 38.8729 35.8763 38.3283 35.899 37.5386C35.9172 36.8669 35.4714 36.2042 34.7482 36.0136C34.0704 35.8321 33.3517 35.7821 32.6648 35.6369C32.0235 35.5007 31.3593 35.3873 30.7589 35.1422C29.1987 34.4977 28.53 33.1316 28.6665 31.3661C28.8393 29.0741 30.3268 27.6399 32.6967 27.4448C34.1523 27.3268 35.5806 27.4856 36.8816 28.2299C37.2682 28.4478 37.6321 28.7201 38.0734 29.0151Z" fill="#B9B9B9"/>
<path d="M25.1639 41.5825C24.195 41.5825 23.2716 41.587 22.3482 41.5734C22.2663 41.5734 22.1526 41.4236 22.1162 41.3238C21.8842 40.6929 21.6659 40.062 21.4566 39.4221C21.3884 39.2179 21.302 39.1135 21.0609 39.118C19.6917 39.1316 18.318 39.1271 16.9488 39.118C16.735 39.118 16.6304 39.1861 16.5621 39.3903C16.3529 40.0393 16.13 40.6838 15.8935 41.3238C15.8571 41.4236 15.7388 41.5688 15.6569 41.5734C14.7335 41.5915 13.8101 41.5825 12.8367 41.5825C13.0095 41.0923 13.1687 40.643 13.3279 40.1982C14.8063 36.1362 16.2937 32.0787 17.763 28.0121C17.8949 27.649 18.0587 27.5038 18.4499 27.5356C18.8911 27.5719 19.3414 27.5537 19.7827 27.5401C19.9965 27.5356 20.1011 27.6036 20.1784 27.8079C21.8023 32.2784 23.4308 36.7443 25.0593 41.2103C25.0911 41.3101 25.1139 41.4145 25.1639 41.5825ZM20.9199 36.7716C20.3513 35.0741 19.8009 33.4266 19.2186 31.6793C18.6318 33.4357 18.0814 35.0878 17.5219 36.7716C18.6773 36.7716 19.7645 36.7716 20.9199 36.7716Z" fill="#B9B9B9"/>
<path d="M46.3522 41.4554V36.2178L41.3485 27.6626H44.6646L47.7896 33.3132L50.9146 27.6626H54.2307L49.2361 36.2178V41.4508H46.3522V41.4554Z" fill="#B9B9B9"/>
<path d="M70.7428 30.3449C70.8064 30.2723 70.8474 30.2315 70.8792 30.1815C74.5819 24.9123 78.2847 19.643 81.7872 14.2375C82.4559 13.2027 83.0791 12.1407 83.7159 11.0878C83.8524 10.8654 83.9524 10.6248 84.0707 10.3934C84.1935 10.1483 84.2072 9.89865 84.1389 9.63541C84.0025 9.08624 83.9433 8.528 83.9297 7.96068C83.8979 6.34948 84.3573 4.87444 85.2079 3.52648C86.3861 1.65659 88.0964 0.535561 90.2616 0.113473C91.5489 -0.136148 92.8044 0.0499332 94.028 0.499252C96.3206 1.34797 97.7671 2.98185 98.4676 5.29653C99.109 7.42966 98.7815 9.44479 97.7125 11.3691C96.7937 13.0167 95.4381 14.174 93.6869 14.8684C93.4594 14.9592 93.2911 15.0908 93.1365 15.2814C91.8719 16.8608 90.6119 18.4403 89.3246 20.0061C84.985 25.2844 80.6318 30.5537 76.2832 35.823C76.124 36.0182 76.0376 36.2088 76.0239 36.472C75.8602 39.0409 73.9315 41.2148 71.4069 41.7005C68.291 42.2996 65.3024 40.3207 64.6474 37.2254C64.5473 36.7489 64.5064 36.2632 64.5428 35.7776C64.5701 35.4009 64.4427 35.1059 64.2198 34.82C63.815 34.3026 63.3919 33.7897 63.0144 33.2542C61.7998 31.5386 60.6081 29.8094 59.3935 28.0983C58.7931 27.2496 58.1563 26.4236 57.5376 25.5885C57.4103 25.4115 57.2465 25.3117 57.0373 25.2436C54.0078 24.2542 52.1837 22.1528 51.4923 19.0983C50.9146 16.5567 51.9062 13.4977 54.0487 11.8639C55.4998 10.7564 57.1328 10.1573 58.9705 10.2436C60.7354 10.3253 62.2866 10.9879 63.5921 12.1725C65.0067 13.4524 65.8346 15.0681 66.1439 16.9425C66.2759 17.7413 66.2531 18.5492 66.1212 19.3525C66.0848 19.584 66.1075 19.7973 66.1985 20.0106C66.9946 21.8578 67.777 23.7095 68.5821 25.5522C69.2371 27.0545 69.9194 28.5431 70.5927 30.0363C70.629 30.1225 70.6836 30.2224 70.7428 30.3449ZM86.3679 7.83813C86.4452 9.35402 86.9637 10.5976 88.0236 11.5688C89.1699 12.6218 90.5391 13.0393 92.072 12.7216C95.1516 12.0772 96.8938 9.17701 96.1887 6.29502C95.2698 2.53254 91.1213 1.58397 88.5103 3.50833C87.032 4.58851 86.3815 6.10894 86.3679 7.83813ZM58.3928 12.7625C57.3739 12.8079 56.3868 13.1392 55.5589 13.8427C54.0896 15.0953 53.5574 16.7247 53.8668 18.5855C54.1988 20.5961 55.386 21.9758 57.3011 22.6838C59.6528 23.5507 62.0819 22.5794 63.2009 20.3419C63.8013 19.1483 63.9241 17.8956 63.5784 16.6021C63.0508 14.6324 61.2949 12.6717 58.3928 12.7625ZM68.0681 32.0877C66.7125 32.6415 65.6572 34.5159 65.7209 36.2088C65.7937 38.1558 67.081 39.8396 68.9369 40.4206C70.6745 40.9652 72.5031 40.3525 73.4129 39.3676C72.3485 39.8396 71.2977 39.9486 70.2196 39.6536C69.137 39.3586 68.2773 38.7413 67.6359 37.8245C66.5715 36.3041 66.4305 33.9395 68.0681 32.0877Z" fill="url(#paint0_linear_4_5)"/>
<path d="M95.1015 7.49318C95.1197 8.70952 94.7877 9.69893 93.9734 10.4841C92.9954 11.4327 91.8219 11.7141 90.5118 11.3464C88.9516 10.9062 87.7507 9.44023 87.5869 7.83358C87.4186 6.19061 88.3147 4.72011 89.875 4.10287C92.1312 3.20877 94.4783 4.52042 95.0106 6.84417C95.0606 7.08925 95.0833 7.34341 95.1015 7.49318Z" fill="#2B2F84"/>
<path d="M62.5368 17.7731C62.5504 18.4175 62.4276 19.0348 62.1547 19.6157C61.2904 21.472 59.1479 22.239 57.3238 21.3041C55.7954 20.5189 54.9767 19.2299 55.004 17.5053C55.0267 16.0439 55.8091 15 57.1146 14.3873C59.4072 13.3162 61.9318 14.6732 62.4412 17.1059C62.4867 17.3283 62.5049 17.5507 62.5368 17.7731Z" fill="#D32027"/>
</g>
<defs>
<linearGradient id="paint0_linear_4_5" x1="51.3209" y1="20.9005" x2="98.7915" y2="20.9005" gradientUnits="userSpaceOnUse">
<stop stop-color="#D32027"/>
<stop offset="0.9916" stop-color="#2B2F84"/>
</linearGradient>
<clipPath id="clip0_4_5">
<rect width="155" height="42" fill="white"/>
</clipPath>
</defs>
</svg>
