<svg width="14" height="15" viewBox="0 0 14 15" fill="none" xmlns="http://www.w3.org/2000/svg">
<path opacity="0.5" d="M0 3C0 1.34315 1.34315 0 3 0H11C12.6569 0 14 1.34315 14 3V12C14 13.6569 12.6569 15 11 15H3C1.34315 15 0 13.6569 0 12V3Z" fill="#D9D9D9"/>
<path d="M11.5902 3.96695H9.8423L8.65279 2.18263C8.57803 2.07213 8.45311 2.00033 8.31148 2H5.68852C5.54689 2 5.42197 2.07181 5.34852 2.18099L5.34754 2.1823L4.15803 3.96662H2.40984C2.18361 3.96662 2 4.15023 2 4.37647C2 4.60271 2.18361 4.78632 2.40984 4.78632H3.34689L3.96885 11.6272C3.98852 11.837 4.16361 12 4.37705 12C4.37705 12 4.37705 12 4.37738 12H9.62328C9.83639 12 10.0115 11.837 10.0308 11.6288V11.6272L10.6528 4.78632H11.5902C11.8164 4.78632 12 4.60271 12 4.37647C12 4.15023 11.8164 3.96662 11.5902 3.96662V3.96695ZM5.90787 2.8197H8.0918L8.85672 3.96695H5.14295L5.90787 2.8197ZM9.24885 11.1806H4.75115L4.17016 4.78698L9.82984 4.78665L9.24885 11.1806Z" fill="#373737"/>
</svg>
