<svg width="102" height="67" viewBox="0 0 102 67" fill="none" xmlns="http://www.w3.org/2000/svg">
<rect width="102" height="67" rx="8" fill="#D9D9D9"/>
<g clip-path="url(#clip0_26_84)">
<path d="M40.7942 30.9533V40.374C40.7942 40.8774 40.7942 40.8774 40.2965 40.8774C38.5258 40.8774 36.7551 40.8695 34.9844 40.8853C34.6641 40.8853 34.6113 40.7847 34.612 40.4999C34.6216 36.8323 34.6121 33.1646 34.6223 29.497C34.6223 29.2137 34.5732 28.9742 34.2639 28.9217C33.9546 28.8692 33.8293 29.0893 33.7457 29.359C32.8408 32.2758 31.9313 35.19 31.0171 38.1015C30.7569 38.9357 30.4916 39.7678 30.2483 40.6063C30.1896 40.8069 30.0973 40.8781 29.8957 40.8781C28.589 40.8738 27.2822 40.8688 25.9754 40.8832C25.7262 40.8832 25.6712 40.7545 25.6155 40.5761C25.1577 39.1019 24.6984 37.6279 24.2377 36.1541C23.6787 34.3615 23.1195 32.5682 22.56 30.7742C22.4134 30.3053 22.27 29.8362 22.1298 29.3669C22.0514 29.1058 21.9326 28.8815 21.6065 28.9289C21.2803 28.9764 21.2481 29.236 21.2481 29.5042C21.2481 33.1467 21.2415 36.7884 21.2569 40.4308C21.2569 40.7983 21.1579 40.8918 20.7944 40.8889C18.9995 40.871 17.2031 40.8731 15.4097 40.8839C15.096 40.8839 14.9993 40.8055 15 40.4819C15.0112 34.1204 15.0112 27.7584 15 21.3959C15 21.0622 15.1092 21.0061 15.4156 21.0076C17.4428 21.0198 19.4708 21.0493 21.4988 21.0026C23.0584 20.9659 24.319 21.7505 24.8196 23.4908C25.5239 25.9394 26.3206 28.3615 27.0784 30.7951C27.2529 31.3555 27.4273 31.9157 27.6017 32.4757C27.6286 32.5674 27.6604 32.6577 27.697 32.7461C27.749 32.864 27.7886 33.0187 27.9601 32.9985C28.0964 32.9827 28.1448 32.8504 28.18 32.7375C28.3769 32.1229 28.5731 31.5073 28.7685 30.8907C29.5337 28.4349 30.3076 25.9812 31.0611 23.5224C31.2714 22.8364 31.517 22.192 32.1055 21.7174C32.6552 21.2744 33.2686 21.0213 33.9795 21.0191C36.1534 21.0133 38.3265 21.0191 40.5025 21.0047C40.8037 21.0047 40.7956 21.1485 40.7956 21.3571C40.7908 24.5558 40.7903 27.7546 40.7942 30.9533Z" fill="#31A924"/>
<path d="M43.7195 30.9385C43.7195 27.7635 43.7246 24.5892 43.7129 21.4149C43.7129 21.0906 43.7906 21 44.1321 21.0036C45.927 21.023 47.7234 21.0201 49.5168 21.0036C49.8269 21.0036 49.8965 21.0899 49.8958 21.3826C49.8855 24.9303 49.883 28.4762 49.8884 32.0201C49.8884 32.1877 49.8884 32.3552 49.8884 32.5235C49.8793 32.6331 49.9131 32.7419 49.9829 32.8279C50.0528 32.9138 50.1535 32.9703 50.2644 32.9859C50.4967 33.0305 50.6514 32.8824 50.7459 32.6824C52.1683 29.6851 53.5901 26.6886 55.0115 23.6932C55.2218 23.2502 55.4256 22.8029 55.6513 22.3664C56.1138 21.4718 56.8746 21.0273 57.8874 21.0209C59.7556 21.0093 61.6253 21.0158 63.4913 21.0108C63.7112 21.0108 63.8688 20.9986 63.868 21.32C63.8563 27.6926 63.8563 34.0653 63.868 40.4384C63.868 40.8066 63.7727 40.8914 63.4092 40.8878C61.6392 40.8691 59.8685 40.872 58.0985 40.8878C57.7687 40.8878 57.6676 40.8073 57.6683 40.4714C57.6808 36.8297 57.6764 33.1887 57.6764 29.547C57.6764 29.4269 57.6698 29.3068 57.6764 29.1874C57.6896 28.9558 57.6031 28.7768 57.3693 28.7243C57.1355 28.6718 56.9933 28.83 56.898 29.0299C56.4722 29.9224 56.0383 30.8199 55.6117 31.7202C54.3797 34.317 53.1587 36.9189 51.912 39.5092C51.4854 40.3952 50.7349 40.8677 49.7272 40.8756C47.9205 40.8885 46.1132 40.8792 44.3036 40.8792C43.7173 40.8792 43.7173 40.8792 43.7173 40.3197L43.7195 30.9385Z" fill="#31A924"/>
<path d="M73.3612 21.0086C75.5834 21.0086 77.8056 20.9899 80.0307 21.0144C82.2727 21.0396 84.1511 21.8644 85.5503 23.6155C86.7471 25.1128 87.1722 26.8286 86.9428 28.7099C86.9194 28.9019 86.879 29.0342 86.6174 29.0328C82.8443 29.0127 79.064 29.1766 75.3012 28.9508C71.5098 28.7264 68.5584 26.9912 66.8294 23.5393C66.463 22.8122 66.323 22.0219 66.1544 21.238C66.1009 20.9914 66.2739 21.005 66.4403 21.005C67.7463 21.005 69.0529 21.005 70.3599 21.005H73.3648L73.3612 21.0086Z" fill="#0087D5"/>
<path d="M86.595 30.0705C86.2888 30.9536 85.7815 31.7567 85.1116 32.4185C83.7359 33.7849 82.0736 34.4903 80.0977 34.4767C77.9239 34.4616 75.75 34.481 73.5748 34.4659C73.2567 34.4659 73.1651 34.5328 73.168 34.8564C73.1848 36.7729 73.168 38.6901 73.1819 40.6095C73.1819 40.89 73.135 41.005 72.8089 41.0022C70.9898 40.9844 69.1704 40.9827 67.3509 40.9971C67.0526 40.9971 66.9917 40.9151 66.9932 40.6376C67.003 37.2336 67.003 33.8297 66.9932 30.4258C66.9932 30.1345 67.0548 30.0446 67.3714 30.0453C73.6481 30.0554 79.925 30.0578 86.2021 30.0525C86.3223 30.0532 86.4411 30.0662 86.595 30.0705Z" fill="#31A924"/>
</g>
<defs>
<clipPath id="clip0_26_84">
<rect width="72" height="20" fill="white" transform="translate(15 21)"/>
</clipPath>
</defs>
</svg>
