<svg width="84" height="84" viewBox="0 0 84 84" fill="none" xmlns="http://www.w3.org/2000/svg">
<path d="M69.7031 40.8085C69.7031 56.108 57.3004 68.5106 42.001 68.5106C26.7015 68.5106 14.2988 56.108 14.2988 40.8085C14.2988 25.509 26.7015 13.1064 42.001 13.1064C57.3004 13.1064 69.7031 25.509 69.7031 40.8085Z" fill="#8753CF"/>
<path d="M77.4464 40.8085C77.4464 60.3852 61.5763 76.2553 41.9995 76.2553C22.4228 76.2553 6.55273 60.3852 6.55273 40.8085C6.55273 21.2318 22.4228 5.3617 41.9995 5.3617C61.5763 5.3617 77.4464 21.2318 77.4464 40.8085Z" fill="#8753CF" fill-opacity="0.61"/>
<path d="M84 42C84 65.196 65.196 84 42 84C18.804 84 0 65.196 0 42C0 18.804 18.804 0 42 0C65.196 0 84 18.804 84 42Z" fill="#8753CF" fill-opacity="0.39"/>
<path d="M23.2344 39.9149L38.128 53.3192L56.5961 25.0213" stroke="#D9D9D9" stroke-width="8"/>
</svg>
