<svg width="84" height="84" viewBox="0 0 84 84" fill="none" xmlns="http://www.w3.org/2000/svg">
<path d="M69.7011 40.8085C69.7011 56.108 57.2985 68.5106 41.999 68.5106C26.6995 68.5106 14.2969 56.108 14.2969 40.8085C14.2969 25.509 26.6995 13.1064 41.999 13.1064C57.2985 13.1064 69.7011 25.509 69.7011 40.8085Z" fill="#B72337"/>
<path d="M77.4483 40.8085C77.4483 60.3852 61.5782 76.2553 42.0015 76.2553C22.4248 76.2553 6.55469 60.3852 6.55469 40.8085C6.55469 21.2318 22.4248 5.36171 42.0015 5.36171C61.5782 5.36171 77.4483 21.2318 77.4483 40.8085Z" fill="#B72337" fill-opacity="0.6"/>
<path d="M84 42C84 65.196 65.196 84 42 84C18.804 84 0 65.196 0 42C0 18.804 18.804 0 42 0C65.196 0 84 18.804 84 42Z" fill="#B52338" fill-opacity="0.4"/>
<path d="M57.5527 23.8966L26.3522 57.1128" stroke="#D9D9D9" stroke-width="8"/>
<path d="M25.8398 24.3926L58.064 56.6167" stroke="#D9D9D9" stroke-width="8"/>
</svg>
