<svg width="23" height="18" viewBox="0 0 23 18" fill="none" xmlns="http://www.w3.org/2000/svg">
<g clip-path="url(#clip0_278_607)">
<path d="M0 12.6441C0.130273 12.9891 0.393965 13.2345 0.652715 13.4864C2.05817 14.8547 3.46153 16.2252 4.86279 17.5979C5.41354 18.136 6.08781 18.1347 6.64035 17.5948L11.151 13.1867C11.4901 12.8553 11.5876 12.4554 11.4456 12.0174C11.3077 11.592 10.9906 11.3353 10.5405 11.2576C10.1061 11.183 9.75254 11.3454 9.44887 11.6438C8.67801 12.4014 7.90311 13.1546 7.1318 13.9113C7.07751 13.9715 7.02696 14.0348 6.98041 14.1009L6.91078 14.0733V13.8271C6.91078 9.62739 6.91078 5.42831 6.91078 1.22982C6.91078 0.61532 6.57387 0.165419 6.02402 0.0394478C5.28955 -0.129101 4.62066 0.377859 4.59057 1.12711C4.58652 1.23684 4.59057 1.34657 4.59057 1.4563V14.1124C4.49623 14.0246 4.43738 13.975 4.38168 13.921C3.59779 13.1559 2.8175 12.3869 2.03002 11.6254C1.53588 11.1483 0.867441 11.0965 0.398906 11.5236C0.224609 11.6785 0.130273 11.9168 0 12.1174V12.6441Z" fill="#8753CF"/>
<path d="M23 5.35799C22.8697 5.01299 22.6065 4.76807 22.3477 4.51613C20.9426 3.14609 19.5397 1.77561 18.139 0.40469C17.5878 -0.134314 16.9131 -0.134752 16.3619 0.40469L11.8531 4.80933C11.5144 5.14028 11.4119 5.53708 11.5521 5.97688C11.6869 6.40308 12.0013 6.66073 12.4505 6.74106C12.8845 6.81918 13.2398 6.65985 13.5435 6.36138C14.3197 5.60057 15.0984 4.83976 15.8794 4.07896C15.9351 4.02453 15.9944 3.97318 16.0897 3.88583V4.1843C16.0897 8.37518 16.0897 12.5658 16.0897 16.7561C16.0897 17.3855 16.4248 17.8363 16.9841 17.9623C17.7086 18.1255 18.3708 17.6269 18.4094 16.8878C18.413 16.8224 18.4094 16.7561 18.4094 16.6902V3.88758C18.5047 3.97537 18.564 4.02628 18.6197 4.08071C19.4031 4.84576 20.1834 5.61389 20.9709 6.37543C21.465 6.8521 22.133 6.90214 22.6011 6.47682C22.7731 6.32012 22.8706 6.08179 22.9986 5.88339L23 5.35799Z" fill="#8753CF"/>
</g>
<defs>
<clipPath id="clip0_278_607">
<rect width="23" height="18" fill="white" transform="matrix(1 0 0 -1 0 18)"/>
</clipPath>
</defs>
</svg>
