<svg width="21" height="22" viewBox="0 0 21 22" fill="none" xmlns="http://www.w3.org/2000/svg">
<path d="M0 3.41736C0 2.82271 0.482057 2.34065 1.0767 2.34065H19.209C19.8037 2.34065 20.2857 2.82271 20.2857 3.41736C20.2857 4.012 19.8037 4.49406 19.209 4.49406H1.0767C0.482058 4.49406 0 4.012 0 3.41736Z" fill="#8753CF"/>
<path d="M0 11.2196C0 10.6249 0.482057 10.1429 1.0767 10.1429H19.209C19.8037 10.1429 20.2857 10.6249 20.2857 11.2196C20.2857 11.8142 19.8037 12.2963 19.209 12.2963H1.0767C0.482058 12.2963 0 11.8142 0 11.2196Z" fill="#8753CF"/>
<path d="M0 19.0218C0 18.4271 0.482057 17.9451 1.0767 17.9451H19.209C19.8037 17.9451 20.2857 18.4271 20.2857 19.0218C20.2857 19.6164 19.8037 20.0985 19.209 20.0985H1.0767C0.482058 20.0985 0 19.6164 0 19.0218Z" fill="#8753CF"/>
<circle cx="5.46155" cy="18.7253" r="3.12088" fill="#8753CF"/>
<circle cx="14.8242" cy="10.9231" r="3.12088" fill="#8753CF"/>
<circle cx="5.46155" cy="3.12088" r="3.12088" fill="#8753CF"/>
</svg>
